# Blender v3.1.2 OBJ File: 'HorrosEnvironmentProps.blend'
# www.blender.org
mtllib BambooCluster.mtl
o BezierCurve.006
v -0.234480 3.919878 -0.393890
v -0.267944 3.921325 -0.356768
v -0.316525 3.914800 -0.366634
v -0.331641 3.906827 -0.413623
v -0.298177 3.905380 -0.450745
v -0.249596 3.911905 -0.440878
v -0.182085 3.327323 -0.339444
v -0.215424 3.327425 -0.302181
v -0.264181 3.322787 -0.312245
v -0.279598 3.318047 -0.359572
v -0.246260 3.317944 -0.396835
v -0.197503 3.322582 -0.386771
v -0.122096 2.485560 -0.291831
v -0.155400 2.485178 -0.254539
v -0.204226 2.481495 -0.264661
v -0.219748 2.478195 -0.312076
v -0.186445 2.478577 -0.349369
v -0.137619 2.482259 -0.339246
v -0.065521 1.536358 -0.254020
v -0.098817 1.535851 -0.216722
v -0.147688 1.532929 -0.226876
v -0.163263 1.530515 -0.274327
v -0.129967 1.531021 -0.311624
v -0.081096 1.533943 -0.301471
v -0.023425 0.621742 -0.229065
v -0.056726 0.621339 -0.191771
v -0.105642 0.619465 -0.201952
v -0.121258 0.617993 -0.249428
v -0.087957 0.618396 -0.286723
v -0.039041 0.620270 -0.276541
v -0.006911 -0.116324 -0.220054
v -0.040219 -0.116324 -0.182763
v -0.089168 -0.116324 -0.192963
v -0.104809 -0.116324 -0.240453
v -0.071501 -0.116324 -0.277744
v -0.022552 -0.116324 -0.267544
v -0.396172 3.037384 0.129112
v -0.429345 3.030643 0.165911
v -0.477162 3.020927 0.154994
v -0.491806 3.017951 0.107280
v -0.458633 3.024692 0.070481
v -0.410816 3.034408 0.081397
v -0.314634 2.536075 0.129112
v -0.348166 2.531443 0.165911
v -0.396501 2.524765 0.154994
v -0.411303 2.522721 0.107280
v -0.377771 2.527353 0.070481
v -0.329437 2.534030 0.081397
v -0.243384 1.910303 0.129112
v -0.277074 1.907009 0.165911
v -0.325636 1.902261 0.154994
v -0.340508 1.900807 0.107280
v -0.306818 1.904101 0.070481
v -0.258256 1.908849 0.081397
v -0.186838 1.218579 0.129112
v -0.220612 1.216298 0.165911
v -0.269295 1.213010 0.154994
v -0.284204 1.212003 0.107280
v -0.250430 1.214284 0.070481
v -0.201747 1.217572 0.081397
v -0.149533 0.519563 0.129112
v -0.183360 0.518309 0.165911
v -0.232120 0.516501 0.154994
v -0.247053 0.515947 0.107280
v -0.213226 0.517202 0.070481
v -0.164466 0.519010 0.081397
v -0.136068 -0.127901 0.129112
v -0.169918 -0.127901 0.165911
v -0.218712 -0.127901 0.154994
v -0.233655 -0.127901 0.107280
v -0.199805 -0.127901 0.070481
v -0.151011 -0.127901 0.081397
v 0.405630 4.177014 -0.494102
v 0.372667 4.185753 -0.457536
v 0.324440 4.193006 -0.468560
v 0.309176 4.191521 -0.516149
v 0.342139 4.182782 -0.552716
v 0.390366 4.175529 -0.541692
v 0.323576 3.464670 -0.438181
v 0.290216 3.470330 -0.401370
v 0.241506 3.473844 -0.412096
v 0.226157 3.471697 -0.459633
v 0.259517 3.466037 -0.496444
v 0.308226 3.462523 -0.485719
v 0.267023 2.546348 -0.374923
v 0.233549 2.550345 -0.337997
v 0.184715 2.552032 -0.348597
v 0.169354 2.549721 -0.396123
v 0.202827 2.545723 -0.433049
v 0.251662 2.544037 -0.422449
v 0.231920 1.555096 -0.315721
v 0.198404 1.557986 -0.278730
v 0.149535 1.558758 -0.289276
v 0.134182 1.556640 -0.336813
v 0.167697 1.553750 -0.373804
v 0.216566 1.552978 -0.363258
v 0.214014 0.623467 -0.271908
v 0.180475 0.625202 -0.234865
v 0.131596 0.625468 -0.245389
v 0.116256 0.623999 -0.292955
v 0.149795 0.622263 -0.329997
v 0.198674 0.621998 -0.319474
v 0.209004 -0.116323 -0.254791
v 0.175454 -0.116323 -0.217718
v 0.126573 -0.116323 -0.228237
v 0.111242 -0.116323 -0.275829
v 0.144792 -0.116323 -0.312901
v 0.193673 -0.116323 -0.302382
v 0.386689 3.810575 0.566406
v 0.353453 3.804571 0.603275
v 0.304653 3.810522 0.594157
v 0.289089 3.822478 0.548169
v 0.322325 3.828482 0.511300
v 0.371125 3.822531 0.520419
v 0.343697 3.138880 0.450630
v 0.310639 3.135546 0.487994
v 0.261711 3.139573 0.478519
v 0.245840 3.146934 0.431680
v 0.278897 3.150269 0.394316
v 0.327826 3.146242 0.403791
v 0.304749 2.311629 0.364069
v 0.271763 2.309776 0.401599
v 0.222778 2.312632 0.391993
v 0.206779 2.317341 0.344856
v 0.239764 2.319194 0.307326
v 0.288750 2.316338 0.316933
v 0.273031 1.427569 0.304788
v 0.240076 1.426558 0.342377
v 0.191060 1.428577 0.332712
v 0.175000 1.431607 0.285459
v 0.207956 1.432618 0.247870
v 0.256971 1.430599 0.257534
v 0.251700 0.585378 0.270750
v 0.218758 0.584927 0.308361
v 0.169722 0.586091 0.298662
v 0.153628 0.587707 0.251350
v 0.186569 0.588158 0.213739
v 0.235606 0.586994 0.223438
v 0.243896 -0.116323 0.259872
v 0.210958 -0.116323 0.297490
v 0.161911 -0.116323 0.287774
v 0.145802 -0.116323 0.240440
v 0.178740 -0.116323 0.202822
v 0.227787 -0.116323 0.212538
v 0.609815 3.800597 0.067666
v 0.576509 3.805674 0.104612
v 0.529106 3.817587 0.094076
v 0.515008 3.824423 0.046594
v 0.548313 3.819346 0.009648
v 0.595716 3.807433 0.020184
v 0.491430 3.131521 0.034347
v 0.457827 3.135026 0.071206
v 0.409564 3.142395 0.060419
v 0.394904 3.146260 0.012773
v 0.428506 3.142756 -0.024086
v 0.476770 3.135386 -0.013299
v 0.398713 2.305728 0.014865
v 0.364994 2.308262 0.051698
v 0.316418 2.313003 0.040840
v 0.301560 2.315209 -0.006851
v 0.335279 2.312675 -0.043683
v 0.383855 2.307935 -0.032826
v 0.332190 1.422504 0.005582
v 0.298416 1.424324 0.042406
v 0.249710 1.427391 0.031529
v 0.234778 1.428639 -0.016173
v 0.268552 1.426819 -0.052997
v 0.317258 1.423751 -0.042120
v 0.292146 0.580882 0.002769
v 0.258336 0.581944 0.039590
v 0.209563 0.583588 0.028706
v 0.194599 0.584170 -0.018999
v 0.228409 0.583108 -0.055820
v 0.277182 0.581464 -0.044936
v 0.278766 -0.120340 0.002668
v 0.244939 -0.120340 0.039488
v 0.196138 -0.120340 0.028603
v 0.181165 -0.120340 -0.019103
v 0.214992 -0.120340 -0.055923
v 0.263793 -0.120340 -0.045037
vt 0.000000 1.000000
vt 0.200000 1.000000
vt 0.200000 0.833333
vt 0.000000 0.833333
vt 0.000000 0.166667
vt 0.200000 0.166667
vt 0.200000 0.000000
vt 0.000000 0.000000
vt 0.000000 0.333333
vt 0.200000 0.333333
vt 0.000000 0.500000
vt 0.200000 0.500000
vt 0.000000 0.666667
vt 0.200000 0.666667
vt 0.400000 1.000000
vt 0.400000 0.833333
vt 0.400000 0.166667
vt 0.400000 0.000000
vt 0.400000 0.333333
vt 0.400000 0.500000
vt 0.400000 0.666667
vt 0.600000 1.000000
vt 0.600000 0.833333
vt 0.600000 0.166667
vt 0.600000 0.000000
vt 0.600000 0.333333
vt 0.600000 0.500000
vt 0.600000 0.666667
vt 0.800000 1.000000
vt 0.800000 0.833333
vt 0.800000 0.166667
vt 0.800000 0.000000
vt 0.800000 0.333333
vt 0.800000 0.500000
vt 0.800000 0.666667
vt 1.000000 1.000000
vt 1.000000 0.833333
vt 1.000000 0.166667
vt 1.000000 0.000000
vt 1.000000 0.333333
vt 1.000000 0.500000
vt 1.000000 0.666667
vt 0.000000 1.000000
vt 0.200000 1.000000
vt 0.200000 0.833333
vt 0.000000 0.833333
vt 0.000000 0.166667
vt 0.200000 0.166667
vt 0.200000 0.000000
vt 0.000000 0.000000
vt 0.000000 0.333333
vt 0.200000 0.333333
vt 0.000000 0.500000
vt 0.200000 0.500000
vt 0.000000 0.666667
vt 0.200000 0.666667
vt 0.400000 1.000000
vt 0.400000 0.833333
vt 0.400000 0.166667
vt 0.400000 0.000000
vt 0.400000 0.333333
vt 0.400000 0.500000
vt 0.400000 0.666667
vt 0.600000 1.000000
vt 0.600000 0.833333
vt 0.600000 0.166667
vt 0.600000 0.000000
vt 0.600000 0.333333
vt 0.600000 0.500000
vt 0.600000 0.666667
vt 0.800000 1.000000
vt 0.800000 0.833333
vt 0.800000 0.166667
vt 0.800000 0.000000
vt 0.800000 0.333333
vt 0.800000 0.500000
vt 0.800000 0.666667
vt 1.000000 1.000000
vt 1.000000 0.833333
vt 1.000000 0.166667
vt 1.000000 0.000000
vt 1.000000 0.333333
vt 1.000000 0.500000
vt 1.000000 0.666667
vt 0.000000 1.000000
vt 0.200000 1.000000
vt 0.200000 0.833333
vt 0.000000 0.833333
vt 0.000000 0.166667
vt 0.200000 0.166667
vt 0.200000 0.000000
vt 0.000000 0.000000
vt 0.000000 0.333333
vt 0.200000 0.333333
vt 0.000000 0.500000
vt 0.200000 0.500000
vt 0.000000 0.666667
vt 0.200000 0.666667
vt 0.400000 1.000000
vt 0.400000 0.833333
vt 0.400000 0.166667
vt 0.400000 0.000000
vt 0.400000 0.333333
vt 0.400000 0.500000
vt 0.400000 0.666667
vt 0.600000 1.000000
vt 0.600000 0.833333
vt 0.600000 0.166667
vt 0.600000 0.000000
vt 0.600000 0.333333
vt 0.600000 0.500000
vt 0.600000 0.666667
vt 0.800000 1.000000
vt 0.800000 0.833333
vt 0.800000 0.166667
vt 0.800000 0.000000
vt 0.800000 0.333333
vt 0.800000 0.500000
vt 0.800000 0.666667
vt 1.000000 1.000000
vt 1.000000 0.833333
vt 1.000000 0.166667
vt 1.000000 0.000000
vt 1.000000 0.333333
vt 1.000000 0.500000
vt 1.000000 0.666667
vt 0.000000 1.000000
vt 0.200000 1.000000
vt 0.200000 0.833333
vt 0.000000 0.833333
vt 0.000000 0.166667
vt 0.200000 0.166667
vt 0.200000 0.000000
vt 0.000000 0.000000
vt 0.000000 0.333333
vt 0.200000 0.333333
vt 0.000000 0.500000
vt 0.200000 0.500000
vt 0.000000 0.666667
vt 0.200000 0.666667
vt 0.400000 1.000000
vt 0.400000 0.833333
vt 0.400000 0.166667
vt 0.400000 0.000000
vt 0.400000 0.333333
vt 0.400000 0.500000
vt 0.400000 0.666667
vt 0.600000 1.000000
vt 0.600000 0.833333
vt 0.600000 0.166667
vt 0.600000 0.000000
vt 0.600000 0.333333
vt 0.600000 0.500000
vt 0.600000 0.666667
vt 0.800000 1.000000
vt 0.800000 0.833333
vt 0.800000 0.166667
vt 0.800000 0.000000
vt 0.800000 0.333333
vt 0.800000 0.500000
vt 0.800000 0.666667
vt 1.000000 1.000000
vt 1.000000 0.833333
vt 1.000000 0.166667
vt 1.000000 0.000000
vt 1.000000 0.333333
vt 1.000000 0.500000
vt 1.000000 0.666667
vt 0.000000 1.000000
vt 0.200000 1.000000
vt 0.200000 0.833333
vt 0.000000 0.833333
vt 0.000000 0.166667
vt 0.200000 0.166667
vt 0.200000 0.000000
vt 0.000000 0.000000
vt 0.000000 0.333333
vt 0.200000 0.333333
vt 0.000000 0.500000
vt 0.200000 0.500000
vt 0.000000 0.666667
vt 0.200000 0.666667
vt 0.400000 1.000000
vt 0.400000 0.833333
vt 0.400000 0.166667
vt 0.400000 0.000000
vt 0.400000 0.333333
vt 0.400000 0.500000
vt 0.400000 0.666667
vt 0.600000 1.000000
vt 0.600000 0.833333
vt 0.600000 0.166667
vt 0.600000 0.000000
vt 0.600000 0.333333
vt 0.600000 0.500000
vt 0.600000 0.666667
vt 0.800000 1.000000
vt 0.800000 0.833333
vt 0.800000 0.166667
vt 0.800000 0.000000
vt 0.800000 0.333333
vt 0.800000 0.500000
vt 0.800000 0.666667
vt 1.000000 1.000000
vt 1.000000 0.833333
vt 1.000000 0.166667
vt 1.000000 0.000000
vt 1.000000 0.333333
vt 1.000000 0.500000
vt 1.000000 0.666667
vn 0.9715 0.1054 0.2123
vn 0.9741 0.0931 0.2061
vn 0.6710 -0.0014 -0.7415
vn 0.6770 -0.0077 -0.7359
vn 0.3079 0.1140 0.9446
vn 0.3091 0.0949 0.9463
vn -0.6573 0.0111 0.7535
vn -0.6625 0.0027 0.7490
vn -0.9765 -0.1036 -0.1887
vn -0.9761 -0.0925 -0.1965
vn -0.3057 -0.1138 -0.9453
vn -0.3076 -0.0947 -0.9468
vn 0.9761 0.0737 0.2046
vn 0.6684 0.0079 -0.7438
vn 0.3113 0.0661 0.9480
vn -0.6637 -0.0074 0.7479
vn -0.9770 -0.0736 -0.2003
vn -0.3096 -0.0660 -0.9486
vn 0.9771 0.0585 0.2045
vn 0.6681 0.0103 -0.7440
vn 0.3128 0.0484 0.9486
vn -0.6637 -0.0100 0.7479
vn -0.9777 -0.0584 -0.2016
vn -0.3101 -0.0482 -0.9495
vn 0.9780 0.0375 0.2052
vn 0.6693 0.0082 -0.7430
vn 0.3150 0.0295 0.9486
vn -0.6627 -0.0079 0.7488
vn -0.9787 -0.0375 -0.2021
vn -0.3096 -0.0294 -0.9504
vn 0.9782 0.0244 0.2062
vn 0.6720 0.0060 -0.7405
vn 0.3180 0.0187 0.9479
vn -0.6602 -0.0056 0.7511
vn -0.9792 -0.0244 -0.2016
vn -0.3074 -0.0185 -0.9514
vn 0.9638 0.1568 0.2156
vn 0.9670 0.1336 0.2167
vn 0.6747 0.0932 -0.7322
vn 0.6750 0.1098 -0.7296
vn 0.3063 0.0498 0.9506
vn 0.3029 0.0419 0.9521
vn -0.6617 -0.1076 0.7420
vn -0.6665 -0.0921 0.7398
vn -0.9627 -0.1565 -0.2209
vn -0.9663 -0.1335 -0.2200
vn -0.2838 -0.0461 -0.9578
vn -0.2892 -0.0399 -0.9564
vn 0.9715 0.0950 0.2172
vn 0.6765 0.0661 -0.7335
vn 0.3020 0.0295 0.9528
vn -0.6711 -0.0656 0.7385
vn -0.9710 -0.0949 -0.2194
vn -0.2929 -0.0286 -0.9557
vn 0.9739 0.0658 0.2174
vn 0.6779 0.0458 -0.7337
vn 0.3023 0.0204 0.9530
vn -0.6730 -0.0455 0.7382
vn -0.9734 -0.0658 -0.2193
vn -0.2941 -0.0199 -0.9556
vn 0.9755 0.0362 0.2172
vn 0.6793 0.0252 -0.7334
vn 0.3034 0.0112 0.9528
vn -0.6737 -0.0250 0.7386
vn -0.9750 -0.0362 -0.2194
vn -0.2939 -0.0109 -0.9558
vn 0.9760 0.0203 0.2169
vn 0.6805 0.0142 -0.7326
vn 0.3049 0.0063 0.9524
vn -0.6733 -0.0140 0.7392
vn -0.9754 -0.0203 -0.2197
vn -0.2928 -0.0061 -0.9562
vn 0.9705 -0.0944 0.2217
vn 0.9735 -0.0699 0.2177
vn 0.6633 -0.1131 -0.7398
vn 0.6571 -0.1339 -0.7418
vn 0.2908 0.0416 0.9559
vn 0.2989 0.0438 0.9533
vn -0.6735 0.1347 0.7269
vn -0.6711 0.1133 0.7327
vn -0.9729 0.0957 -0.2106
vn -0.9749 0.0706 -0.2114
vn -0.3226 -0.0370 -0.9458
vn -0.3150 -0.0420 -0.9481
vn 0.9762 -0.0336 0.2142
vn 0.6679 -0.0800 -0.7399
vn 0.3030 0.0465 0.9518
vn -0.6710 0.0799 0.7371
vn -0.9772 0.0339 -0.2098
vn -0.3114 -0.0459 -0.9492
vn 0.9769 -0.0153 0.2134
vn 0.6699 -0.0578 -0.7402
vn 0.3042 0.0425 0.9517
vn -0.6707 0.0578 0.7395
vn -0.9779 0.0156 -0.2085
vn -0.3100 -0.0422 -0.9498
vn 0.9767 -0.0052 0.2145
vn 0.6716 -0.0347 -0.7401
vn 0.3039 0.0294 0.9522
vn -0.6700 0.0347 0.7416
vn -0.9784 0.0055 -0.2064
vn -0.3097 -0.0293 -0.9504
vn 0.9760 -0.0016 0.2178
vn 0.6734 -0.0217 -0.7390
vn 0.3025 0.0200 0.9529
vn -0.6684 0.0217 0.7435
vn -0.9792 0.0019 -0.2029
vn -0.3107 -0.0199 -0.9503
vn 0.9810 -0.0922 0.1708
vn 0.9805 -0.0793 0.1799
vn 0.6545 0.0679 -0.7530
vn 0.6503 0.0885 -0.7545
vn 0.3171 -0.1807 0.9310
vn 0.3183 -0.1472 0.9365
vn -0.6735 -0.0835 0.7345
vn -0.6678 -0.0655 0.7414
vn -0.9740 0.0976 -0.2044
vn -0.9766 0.0818 -0.1990
vn -0.3136 0.1808 -0.9322
vn -0.3166 0.1473 -0.9371
vn 0.9808 -0.0567 0.1868
vn 0.6558 0.0375 -0.7540
vn 0.3202 -0.0942 0.9427
vn -0.6636 -0.0366 0.7472
vn -0.9786 0.0575 -0.1975
vn -0.3198 0.0942 -0.9428
vn 0.9810 -0.0402 0.1895
vn 0.6561 0.0205 -0.7544
vn 0.3210 -0.0606 0.9451
vn -0.6621 -0.0200 0.7491
vn -0.9796 0.0406 -0.1970
vn -0.3214 0.0606 -0.9450
vn 0.9814 -0.0232 0.1906
vn 0.6556 0.0092 -0.7551
vn 0.3211 -0.0323 0.9465
vn -0.6621 -0.0089 0.7494
vn -0.9801 0.0234 -0.1974
vn -0.3227 0.0323 -0.9459
vn 0.9817 -0.0139 0.1902
vn 0.6543 0.0044 -0.7562
vn 0.3204 -0.0182 0.9471
vn -0.6632 -0.0042 0.7484
vn -0.9800 0.0140 -0.1983
vn -0.3238 0.0183 -0.9460
vn 0.9607 -0.1805 0.2111
vn 0.9657 -0.1473 0.2140
vn 0.6646 -0.0687 -0.7440
vn 0.6573 -0.0790 -0.7495
vn 0.2765 -0.0966 0.9562
vn 0.2852 -0.0762 0.9554
vn -0.6832 0.0848 0.7253
vn -0.6794 0.0714 0.7303
vn -0.9591 0.1807 -0.2178
vn -0.9649 0.1474 -0.2175
vn -0.3038 0.1010 -0.9473
vn -0.3011 0.0784 -0.9504
vn 0.9717 -0.0948 0.2164
vn 0.6702 -0.0502 -0.7405
vn 0.2924 -0.0437 0.9553
vn -0.6785 0.0511 0.7328
vn -0.9714 0.0948 -0.2179
vn -0.3018 0.0445 -0.9523
vn 0.9742 -0.0614 0.2174
vn 0.6725 -0.0362 -0.7392
vn 0.2950 -0.0247 0.9552
vn -0.6784 0.0366 0.7338
vn -0.9741 0.0614 -0.2177
vn -0.3023 0.0252 -0.9529
vn 0.9754 -0.0329 0.2182
vn 0.6735 -0.0212 -0.7389
vn 0.2953 -0.0115 0.9553
vn -0.6789 0.0213 0.7339
vn -0.9756 0.0329 -0.2172
vn -0.3032 0.0118 -0.9528
vn 0.9756 -0.0186 0.2189
vn 0.6731 -0.0127 -0.7394
vn 0.2939 -0.0057 0.9558
vn -0.6798 0.0129 0.7333
vn -0.9761 0.0186 -0.2164
vn -0.3050 0.0060 -0.9523
usemtl None
s 1
f 1/1/1 7/2/2 12/3/3 6/4/4
f 2/5/5 8/6/6 7/7/2 1/8/1
f 3/9/7 9/10/8 8/6/6 2/5/5
f 4/11/9 10/12/10 9/10/8 3/9/7
f 5/13/11 11/14/12 10/12/10 4/11/9
f 6/4/4 12/3/3 11/14/12 5/13/11
f 7/2/2 13/15/13 18/16/14 12/3/3
f 8/6/6 14/17/15 13/18/13 7/7/2
f 9/10/8 15/19/16 14/17/15 8/6/6
f 10/12/10 16/20/17 15/19/16 9/10/8
f 11/14/12 17/21/18 16/20/17 10/12/10
f 12/3/3 18/16/14 17/21/18 11/14/12
f 13/15/13 19/22/19 24/23/20 18/16/14
f 14/17/15 20/24/21 19/25/19 13/18/13
f 15/19/16 21/26/22 20/24/21 14/17/15
f 16/20/17 22/27/23 21/26/22 15/19/16
f 17/21/18 23/28/24 22/27/23 16/20/17
f 18/16/14 24/23/20 23/28/24 17/21/18
f 19/22/19 25/29/25 30/30/26 24/23/20
f 20/24/21 26/31/27 25/32/25 19/25/19
f 21/26/22 27/33/28 26/31/27 20/24/21
f 22/27/23 28/34/29 27/33/28 21/26/22
f 23/28/24 29/35/30 28/34/29 22/27/23
f 24/23/20 30/30/26 29/35/30 23/28/24
f 25/29/25 31/36/31 36/37/32 30/30/26
f 26/31/27 32/38/33 31/39/31 25/32/25
f 27/33/28 33/40/34 32/38/33 26/31/27
f 28/34/29 34/41/35 33/40/34 27/33/28
f 29/35/30 35/42/36 34/41/35 28/34/29
f 30/30/26 36/37/32 35/42/36 29/35/30
f 37/43/37 43/44/38 48/45/39 42/46/40
f 38/47/41 44/48/42 43/49/38 37/50/37
f 39/51/43 45/52/44 44/48/42 38/47/41
f 40/53/45 46/54/46 45/52/44 39/51/43
f 41/55/47 47/56/48 46/54/46 40/53/45
f 42/46/40 48/45/39 47/56/48 41/55/47
f 43/44/38 49/57/49 54/58/50 48/45/39
f 44/48/42 50/59/51 49/60/49 43/49/38
f 45/52/44 51/61/52 50/59/51 44/48/42
f 46/54/46 52/62/53 51/61/52 45/52/44
f 47/56/48 53/63/54 52/62/53 46/54/46
f 48/45/39 54/58/50 53/63/54 47/56/48
f 49/57/49 55/64/55 60/65/56 54/58/50
f 50/59/51 56/66/57 55/67/55 49/60/49
f 51/61/52 57/68/58 56/66/57 50/59/51
f 52/62/53 58/69/59 57/68/58 51/61/52
f 53/63/54 59/70/60 58/69/59 52/62/53
f 54/58/50 60/65/56 59/70/60 53/63/54
f 55/64/55 61/71/61 66/72/62 60/65/56
f 56/66/57 62/73/63 61/74/61 55/67/55
f 57/68/58 63/75/64 62/73/63 56/66/57
f 58/69/59 64/76/65 63/75/64 57/68/58
f 59/70/60 65/77/66 64/76/65 58/69/59
f 60/65/56 66/72/62 65/77/66 59/70/60
f 61/71/61 67/78/67 72/79/68 66/72/62
f 62/73/63 68/80/69 67/81/67 61/74/61
f 63/75/64 69/82/70 68/80/69 62/73/63
f 64/76/65 70/83/71 69/82/70 63/75/64
f 65/77/66 71/84/72 70/83/71 64/76/65
f 66/72/62 72/79/68 71/84/72 65/77/66
f 73/85/73 79/86/74 84/87/75 78/88/76
f 74/89/77 80/90/78 79/91/74 73/92/73
f 75/93/79 81/94/80 80/90/78 74/89/77
f 76/95/81 82/96/82 81/94/80 75/93/79
f 77/97/83 83/98/84 82/96/82 76/95/81
f 78/88/76 84/87/75 83/98/84 77/97/83
f 79/86/74 85/99/85 90/100/86 84/87/75
f 80/90/78 86/101/87 85/102/85 79/91/74
f 81/94/80 87/103/88 86/101/87 80/90/78
f 82/96/82 88/104/89 87/103/88 81/94/80
f 83/98/84 89/105/90 88/104/89 82/96/82
f 84/87/75 90/100/86 89/105/90 83/98/84
f 85/99/85 91/106/91 96/107/92 90/100/86
f 86/101/87 92/108/93 91/109/91 85/102/85
f 87/103/88 93/110/94 92/108/93 86/101/87
f 88/104/89 94/111/95 93/110/94 87/103/88
f 89/105/90 95/112/96 94/111/95 88/104/89
f 90/100/86 96/107/92 95/112/96 89/105/90
f 91/106/91 97/113/97 102/114/98 96/107/92
f 92/108/93 98/115/99 97/116/97 91/109/91
f 93/110/94 99/117/100 98/115/99 92/108/93
f 94/111/95 100/118/101 99/117/100 93/110/94
f 95/112/96 101/119/102 100/118/101 94/111/95
f 96/107/92 102/114/98 101/119/102 95/112/96
f 97/113/97 103/120/103 108/121/104 102/114/98
f 98/115/99 104/122/105 103/123/103 97/116/97
f 99/117/100 105/124/106 104/122/105 98/115/99
f 100/118/101 106/125/107 105/124/106 99/117/100
f 101/119/102 107/126/108 106/125/107 100/118/101
f 102/114/98 108/121/104 107/126/108 101/119/102
f 109/127/109 115/128/110 120/129/111 114/130/112
f 110/131/113 116/132/114 115/133/110 109/134/109
f 111/135/115 117/136/116 116/132/114 110/131/113
f 112/137/117 118/138/118 117/136/116 111/135/115
f 113/139/119 119/140/120 118/138/118 112/137/117
f 114/130/112 120/129/111 119/140/120 113/139/119
f 115/128/110 121/141/121 126/142/122 120/129/111
f 116/132/114 122/143/123 121/144/121 115/133/110
f 117/136/116 123/145/124 122/143/123 116/132/114
f 118/138/118 124/146/125 123/145/124 117/136/116
f 119/140/120 125/147/126 124/146/125 118/138/118
f 120/129/111 126/142/122 125/147/126 119/140/120
f 121/141/121 127/148/127 132/149/128 126/142/122
f 122/143/123 128/150/129 127/151/127 121/144/121
f 123/145/124 129/152/130 128/150/129 122/143/123
f 124/146/125 130/153/131 129/152/130 123/145/124
f 125/147/126 131/154/132 130/153/131 124/146/125
f 126/142/122 132/149/128 131/154/132 125/147/126
f 127/148/127 133/155/133 138/156/134 132/149/128
f 128/150/129 134/157/135 133/158/133 127/151/127
f 129/152/130 135/159/136 134/157/135 128/150/129
f 130/153/131 136/160/137 135/159/136 129/152/130
f 131/154/132 137/161/138 136/160/137 130/153/131
f 132/149/128 138/156/134 137/161/138 131/154/132
f 133/155/133 139/162/139 144/163/140 138/156/134
f 134/157/135 140/164/141 139/165/139 133/158/133
f 135/159/136 141/166/142 140/164/141 134/157/135
f 136/160/137 142/167/143 141/166/142 135/159/136
f 137/161/138 143/168/144 142/167/143 136/160/137
f 138/156/134 144/163/140 143/168/144 137/161/138
f 145/169/145 151/170/146 156/171/147 150/172/148
f 146/173/149 152/174/150 151/175/146 145/176/145
f 147/177/151 153/178/152 152/174/150 146/173/149
f 148/179/153 154/180/154 153/178/152 147/177/151
f 149/181/155 155/182/156 154/180/154 148/179/153
f 150/172/148 156/171/147 155/182/156 149/181/155
f 151/170/146 157/183/157 162/184/158 156/171/147
f 152/174/150 158/185/159 157/186/157 151/175/146
f 153/178/152 159/187/160 158/185/159 152/174/150
f 154/180/154 160/188/161 159/187/160 153/178/152
f 155/182/156 161/189/162 160/188/161 154/180/154
f 156/171/147 162/184/158 161/189/162 155/182/156
f 157/183/157 163/190/163 168/191/164 162/184/158
f 158/185/159 164/192/165 163/193/163 157/186/157
f 159/187/160 165/194/166 164/192/165 158/185/159
f 160/188/161 166/195/167 165/194/166 159/187/160
f 161/189/162 167/196/168 166/195/167 160/188/161
f 162/184/158 168/191/164 167/196/168 161/189/162
f 163/190/163 169/197/169 174/198/170 168/191/164
f 164/192/165 170/199/171 169/200/169 163/193/163
f 165/194/166 171/201/172 170/199/171 164/192/165
f 166/195/167 172/202/173 171/201/172 165/194/166
f 167/196/168 173/203/174 172/202/173 166/195/167
f 168/191/164 174/198/170 173/203/174 167/196/168
f 169/197/169 175/204/175 180/205/176 174/198/170
f 170/199/171 176/206/177 175/207/175 169/200/169
f 171/201/172 177/208/178 176/206/177 170/199/171
f 172/202/173 178/209/179 177/208/178 171/201/172
f 173/203/174 179/210/180 178/209/179 172/202/173
f 174/198/170 180/205/176 179/210/180 173/203/174
